<svg width="100" height="100" viewBox="0 0 100 100" fill="none" xmlns="http://www.w3.org/2000/svg">
<rect width="100" height="100" rx="8" fill="white"/>
<g clip-path="url(#clip0_8_110)">
<path d="M79.452 1.36987H20.5479C9.95618 1.36987 1.36986 9.95619 1.36986 20.548V79.4521C1.36986 90.0438 9.95618 98.6301 20.5479 98.6301H79.452C90.0438 98.6301 98.6301 90.0438 98.6301 79.4521V20.548C98.6301 9.95619 90.0438 1.36987 79.452 1.36987Z" fill="black" stroke="black" stroke-width="21.9178"/>
<path d="M82.612 32.0935C79.3092 26.4347 74.8293 21.9545 69.171 18.6522C63.5118 15.3496 57.3336 13.6987 50.6322 13.6987C43.9315 13.6987 37.7514 15.3501 32.0934 18.6522C26.4346 21.9544 21.9548 26.4347 18.652 32.0935C15.3498 37.7522 13.6986 43.9315 13.6986 50.6313C13.6986 58.6792 16.0466 65.9162 20.7439 72.3439C25.4406 78.7722 31.5081 83.2203 38.9458 85.6888C39.8116 85.8494 40.4525 85.7364 40.8692 85.3526C41.2861 84.9682 41.4942 84.4868 41.4942 83.9104C41.4942 83.8142 41.486 82.9489 41.47 81.3136C41.4535 79.6782 41.4457 78.2515 41.4457 77.0342L40.3396 77.2256C39.6344 77.3548 38.7447 77.4095 37.6705 77.394C36.5969 77.379 35.4824 77.2665 34.3284 77.0573C33.1739 76.85 32.1001 76.3691 31.1062 75.6157C30.1127 74.8622 29.4075 73.876 28.9906 72.6586L28.5097 71.5519C28.1892 70.8152 27.6845 69.9967 26.9951 69.0996C26.3057 68.2017 25.6085 67.593 24.9033 67.2724L24.5666 67.0314C24.3422 66.8712 24.134 66.678 23.9415 66.4538C23.7491 66.2296 23.6051 66.0053 23.509 65.7806C23.4126 65.5557 23.4924 65.3713 23.7493 65.2266C24.0062 65.0819 24.4704 65.0117 25.144 65.0117L26.1054 65.1553C26.7467 65.2839 27.5398 65.6677 28.486 66.3093C29.4316 66.9504 30.2089 67.7838 30.8181 68.8093C31.5559 70.1241 32.4448 71.1259 33.4872 71.8154C34.5288 72.5048 35.579 72.8489 36.6368 72.8489C37.6946 72.8489 38.6082 72.7687 39.378 72.6092C40.1469 72.4489 40.8683 72.2078 41.5419 71.8875C41.8304 69.7385 42.616 68.0877 43.898 66.9337C42.0708 66.7417 40.428 66.4525 38.9689 66.0679C37.5105 65.6829 36.0035 65.058 34.4488 64.1915C32.8933 63.3263 31.6029 62.2518 30.5773 60.97C29.5515 59.6875 28.7096 58.0038 28.0529 55.9204C27.3958 53.8361 27.0672 51.4319 27.0672 48.7069C27.0672 44.8269 28.3339 41.5252 30.8667 38.7999C29.6802 35.8828 29.7922 32.6128 31.203 28.99C32.1328 28.7012 33.5116 28.9179 35.3389 29.639C37.1664 30.3604 38.5045 30.9784 39.3544 31.4908C40.2043 32.003 40.8853 32.4371 41.3984 32.7891C44.3806 31.9559 47.4581 31.5392 50.6318 31.5392C53.8055 31.5392 56.8837 31.9559 59.8661 32.7891L61.6935 31.6355C62.9431 30.8658 64.4188 30.1603 66.117 29.5191C67.8162 28.8782 69.1155 28.7017 70.0136 28.9905C71.4558 32.6135 71.5843 35.8834 70.3975 38.8004C72.9302 41.5257 74.1973 44.8282 74.1973 48.7074C74.1973 51.4324 73.8675 53.8442 73.2114 55.9445C72.5545 58.0451 71.7054 59.7271 70.6638 60.9941C69.621 62.2609 68.3224 63.3269 66.7677 64.192C65.2127 65.0578 63.7051 65.6827 62.2468 66.0678C60.7878 66.4528 59.145 66.7422 57.3178 66.9345C58.9843 68.3767 59.8178 70.6531 59.8178 73.7628V83.909C59.8178 84.4854 60.0182 84.9667 60.4194 85.3512C60.8201 85.7351 61.453 85.8481 62.3187 85.6872C69.7575 83.2191 75.8249 78.7708 80.5215 72.3426C85.2175 65.9148 87.5664 58.6779 87.5664 50.6299C87.5647 43.931 85.9127 37.7522 82.612 32.0935Z" fill="white"/>
</g>
<defs>
<clipPath id="clip0_8_110">
<rect width="100" height="100" rx="8" fill="white"/>
</clipPath>
</defs>
</svg>
