<svg width="100" height="100" viewBox="0 0 100 100" fill="none" xmlns="http://www.w3.org/2000/svg">
<rect width="100" height="100" rx="10" fill="white"/>
<g clip-path="url(#clip0_8_116)">
<path d="M71.875 0H28.125C12.5 0 0 12.5 0 28.125V71.875C0 87.5 12.5 100 28.125 100H71.875C87.5 100 100 87.5 100 71.875V28.125C100 12.5 87.5 0 71.875 0Z" fill="#0097D3"/>
<path d="M37.5 78.125C37.5 80 36.25 81.25 34.375 81.25H21.875C20 81.25 18.75 80 18.75 78.125V40.625C18.75 38.75 20 37.5 21.875 37.5H34.375C36.25 37.5 37.5 38.75 37.5 40.625V78.125ZM28.125 34.375C22.8125 34.375 18.75 30.3125 18.75 25C18.75 19.6875 22.8125 15.625 28.125 15.625C33.4375 15.625 37.5 19.6875 37.5 25C37.5 30.3125 33.4375 34.375 28.125 34.375ZM81.25 78.125C81.25 80 80 81.25 78.125 81.25H68.75C66.875 81.25 65.625 80 65.625 78.125V67.1875V64.0625V57.8125C65.625 55.3125 63.4375 53.125 60.9375 53.125C58.4375 53.125 56.25 55.3125 56.25 57.8125V64.0625V67.1875V78.125C56.25 80 55 81.25 53.125 81.25H43.75C41.875 81.25 40.625 80 40.625 78.125V40.625C40.625 38.75 41.875 37.5 43.75 37.5H56.25C57.1875 37.5 57.8125 37.8125 58.4375 38.4375C60.3125 37.8125 62.1875 37.5 64.0625 37.5C73.4375 37.5 81.25 45.3125 81.25 54.6875V78.125Z" fill="white"/>
</g>
<defs>
<clipPath id="clip0_8_116">
<rect width="100" height="100" rx="10" fill="white"/>
</clipPath>
</defs>
</svg>
