<svg width="150" height="150" viewBox="0 0 150 150" fill="none" xmlns="http://www.w3.org/2000/svg">
<rect width="150" height="150" fill="#F5F5F5"/>
<g id="Desktop - 1">
<rect width="1440" height="5490" transform="translate(-173 -1272)" fill="white"/>
</g>
<g id="EduAndSkillsSection">
<path d="M-173 -323C-173 -324.105 -172.105 -325 -171 -325H1265C1266.1 -325 1267 -324.105 1267 -323V623C1267 624.105 1266.1 625 1265 625H-171C-172.105 625 -173 624.105 -173 623V-323Z" fill="#303030"/>
<g id="EduGroup">
<g id="student-svgrepo-com 1">
<g clip-path="url(#clip0_0_1)">
<rect id="Rectangle 5" x="-26.1468" width="218.807" height="225.701" fill="#F2EDDA"/>
<path id="Vector" d="M109.219 39.3753L102.281 30.0004C101.835 29.4053 101.254 28.925 100.586 28.599C99.9173 28.2729 99.1809 28.1106 98.4375 28.1254H52.5C51.8231 28.1253 51.1537 28.272 50.5387 28.5552C49.9237 28.8384 49.3776 29.2515 48.9375 29.766L40.875 39.141C40.1826 40.0032 39.8174 41.0824 39.8437 42.1879V76.3598C39.8561 84.5236 43.1047 92.3498 48.8775 98.1225C54.6506 103.896 62.4764 107.144 70.6406 107.157H79.3594C87.5236 107.144 95.3494 103.896 101.122 98.1225C106.895 92.3498 110.144 84.5236 110.156 76.3598V42.1879C110.156 41.1736 109.827 40.1867 109.219 39.3753Z" fill="#FFCC80"/>
<path id="Vector_2" d="M139.594 133.031L120.844 109.594C120.3 108.9 119.572 108.374 118.743 108.076C117.914 107.777 117.017 107.719 116.156 107.906L75 117.188L33.8437 107.812C32.9828 107.625 32.0863 107.684 31.2573 107.982C30.4281 108.28 29.7 108.807 29.1562 109.5L10.4062 132.938C9.86216 133.624 9.5211 134.448 9.42168 135.318C9.32226 136.188 9.46846 137.069 9.84374 137.859C10.2101 138.675 10.8019 139.368 11.5494 139.858C12.2969 140.348 13.1688 140.614 14.0625 140.625H135.937C136.821 140.623 137.686 140.37 138.432 139.898C139.179 139.425 139.777 138.751 140.156 137.953C140.532 137.162 140.677 136.282 140.578 135.412C140.479 134.542 140.138 133.717 139.594 133.031Z" fill="#B52E31"/>
<path id="Vector_3" d="M137.297 28.1252L76.3594 9.37516C75.4683 9.14074 74.5317 9.14074 73.6406 9.37516L12.7031 28.1252C11.7067 28.426 10.8387 29.0501 10.2361 29.8988C9.63352 30.7475 9.33057 31.7727 9.375 32.8127C9.3361 33.8647 9.6525 34.8993 10.2733 35.7497C10.894 36.6 11.783 37.2166 12.7969 37.5002L73.7344 54.375C74.5594 54.6253 75.4406 54.6253 76.2656 54.375L137.203 37.5002C138.217 37.2166 139.106 36.6 139.727 35.7497C140.348 34.8993 140.664 33.8647 140.625 32.8127C140.67 31.7727 140.366 30.7475 139.764 29.8988C139.161 29.0501 138.293 28.426 137.297 28.1252Z" fill="#B52E31"/>
<path id="Vector_4" d="M52.5938 28.125C51.9169 28.125 51.2475 28.2716 50.6325 28.5548C50.0175 28.838 49.4714 29.2511 49.0312 29.7656L40.9687 39.1406C40.2426 39.9897 39.8437 41.0703 39.8438 42.1875V76.3594C39.8561 84.5236 43.1048 92.3494 48.8775 98.1225C54.6506 103.895 62.4764 107.144 70.6406 107.156H75V28.125H52.5938Z" fill="#FFE0B2"/>
<path id="Vector_5" d="M33.8437 107.812C32.9828 107.625 32.0864 107.684 31.2573 107.982C30.4281 108.28 29.7 108.807 29.1562 109.5L10.4062 132.938C9.86216 133.624 9.5211 134.448 9.42168 135.318C9.32226 136.188 9.46846 137.069 9.84374 137.859C10.2101 138.675 10.8019 139.368 11.5494 139.858C12.2969 140.348 13.1688 140.614 14.0625 140.625H75V117.188L33.8437 107.812Z" fill="#E23237"/>
<path id="Vector_6" d="M73.6406 9.37512L12.7031 28.1251C11.7067 28.4261 10.8387 29.0501 10.2361 29.8988C9.63352 30.7475 9.33057 31.7727 9.375 32.8126C9.3361 33.8647 9.6525 34.8993 10.2733 35.7496C10.894 36.6 11.783 37.2166 12.7969 37.5001L73.7344 54.375C74.1534 54.4435 74.5809 54.4435 75 54.375V9.37512C74.5495 9.30326 74.0911 9.30326 73.6406 9.37512Z" fill="#E23237"/>
</g>
</g>
</g>
<path d="M-171 -324H1265V-326H-171V-324ZM1266 -323V623H1268V-323H1266ZM1265 624H-171V626H1265V624ZM-172 623V-323H-174V623H-172ZM-171 624C-171.552 624 -172 623.552 -172 623H-174C-174 624.657 -172.657 626 -171 626V624ZM1266 623C1266 623.552 1265.55 624 1265 624V626C1266.66 626 1268 624.657 1268 623H1266ZM1265 -324C1265.55 -324 1266 -323.552 1266 -323H1268C1268 -324.657 1266.66 -326 1265 -326V-324ZM-171 -326C-172.657 -326 -174 -324.657 -174 -323H-172C-172 -323.552 -171.552 -324 -171 -324V-326Z" fill="black" fill-opacity="0.1"/>
</g>
<defs>
<clipPath id="clip0_0_1">
<rect width="150" height="150" rx="10" fill="white"/>
</clipPath>
</defs>
</svg>
